<?xml version="1.0" encoding="utf-8"?>
<svg width="432px" height="862px" viewBox="0 0 432 862" version="1.1" xmlns:xlink="http://www.w3.org/1999/xlink" xmlns="http://www.w3.org/2000/svg">
  <defs>
    <rect width="432" height="862" id="artboard_1" />
    <clipPath id="clip_1">
      <use xlink:href="#artboard_1" clip-rule="evenodd" />
    </clipPath>
  </defs>
  <g id="iPhone-XFrame" clip-path="url(#clip_1)">
    <path d="M69.999 0L362.001 0Q363.646 0 365.288 0.0807032Q366.931 0.161406 368.568 0.322618Q370.205 0.48383 371.832 0.725163Q373.459 0.966495 375.072 1.28737Q376.685 1.60824 378.28 2.00788Q379.876 2.40751 381.45 2.88495Q383.024 3.3624 384.572 3.91649Q386.121 4.47058 387.64 5.09999Q389.16 5.72941 390.647 6.43262Q392.134 7.13583 393.584 7.91116Q395.035 8.68648 396.445 9.53204Q397.856 10.3776 399.224 11.2914Q400.591 12.2051 401.912 13.1849Q403.233 14.1647 404.505 15.2081Q405.776 16.2515 406.995 17.356Q408.213 18.4606 409.376 19.6236Q410.539 20.7866 411.644 22.0052Q412.748 23.2239 413.792 24.4953Q414.835 25.7667 415.815 27.0877Q416.795 28.4088 417.709 29.7763Q418.622 31.1439 419.468 32.5546Q420.314 33.9654 421.089 35.4159Q421.864 36.8664 422.567 38.3532Q423.271 39.8401 423.9 41.3596Q424.529 42.8791 425.083 44.4277Q425.638 45.9763 426.115 47.5502Q426.592 49.1241 426.992 50.7196Q427.392 52.315 427.713 53.9281Q428.033 55.5413 428.275 57.1682Q428.516 58.7951 428.677 60.4319Q428.839 62.0688 428.919 63.7115Q429 65.3543 429 66.999L429 209L429.641 209Q429.757 209 429.872 209.011Q429.988 209.023 430.101 209.045Q430.215 209.068 430.326 209.102Q430.437 209.135 430.544 209.18Q430.651 209.224 430.753 209.279Q430.855 209.333 430.952 209.398Q431.048 209.462 431.138 209.535Q431.227 209.609 431.309 209.691Q431.391 209.773 431.465 209.862Q431.538 209.952 431.602 210.048Q431.667 210.145 431.721 210.247Q431.776 210.349 431.82 210.456Q431.865 210.563 431.898 210.674Q431.932 210.785 431.955 210.899Q431.977 211.012 431.989 211.128Q432 211.243 432 211.359L432 312.641Q432 312.757 431.989 312.872Q431.977 312.988 431.955 313.101Q431.932 313.215 431.898 313.326Q431.865 313.437 431.82 313.544Q431.776 313.651 431.721 313.753Q431.667 313.855 431.602 313.952Q431.538 314.048 431.465 314.138Q431.391 314.227 431.309 314.309Q431.227 314.391 431.138 314.465Q431.048 314.538 430.952 314.602Q430.855 314.667 430.753 314.721Q430.651 314.776 430.544 314.82Q430.437 314.865 430.326 314.898Q430.215 314.932 430.101 314.955Q429.988 314.977 429.872 314.989Q429.757 315 429.641 315L429 315L429 795.001Q429 796.646 428.919 798.288Q428.839 799.931 428.677 801.568Q428.516 803.205 428.275 804.832Q428.033 806.459 427.713 808.072Q427.392 809.685 426.992 811.28Q426.592 812.876 426.115 814.45Q425.638 816.024 425.083 817.572Q424.529 819.121 423.9 820.64Q423.271 822.16 422.567 823.647Q421.864 825.134 421.089 826.584Q420.314 828.035 419.468 829.445Q418.622 830.856 417.709 832.224Q416.795 833.591 415.815 834.912Q414.835 836.233 413.792 837.505Q412.749 838.776 411.644 839.995Q410.539 841.213 409.376 842.376Q408.213 843.539 406.995 844.644Q405.776 845.748 404.505 846.792Q403.233 847.835 401.912 848.815Q400.591 849.795 399.224 850.709Q397.856 851.622 396.445 852.468Q395.035 853.313 393.584 854.089Q392.134 854.864 390.647 855.567Q389.16 856.271 387.64 856.9Q386.121 857.529 384.572 858.083Q383.024 858.638 381.45 859.115Q379.876 859.593 378.28 859.992Q376.685 860.392 375.072 860.713Q373.459 861.033 371.832 861.275Q370.205 861.516 368.568 861.677Q366.931 861.839 365.288 861.919Q363.646 862 362.001 862L69.999 862Q68.3543 862 66.7115 861.919Q65.0688 861.839 63.432 861.677Q61.7951 861.516 60.1682 861.275Q58.5413 861.033 56.9281 860.713Q55.315 860.392 53.7196 859.992Q52.1241 859.593 50.5502 859.115Q48.9763 858.638 47.4277 858.083Q45.8791 857.529 44.3596 856.9Q42.84 856.271 41.3532 855.567Q39.8664 854.864 38.4159 854.089Q36.9654 853.313 35.5546 852.468Q34.1439 851.622 32.7763 850.709Q31.4088 849.795 30.0877 848.815Q28.7667 847.835 27.4953 846.792Q26.2239 845.748 25.0052 844.644Q23.7866 843.539 22.6236 842.376Q21.4605 841.213 20.356 839.995Q19.2515 838.776 18.2081 837.505Q17.1647 836.233 16.1849 834.912Q15.2051 833.591 14.2914 832.224Q13.3776 830.856 12.532 829.445Q11.6865 828.035 10.9112 826.584Q10.1358 825.134 9.43262 823.647Q8.72941 822.16 8.09999 820.64Q7.47058 819.121 6.91649 817.572Q6.36239 816.024 5.88495 814.45Q5.40751 812.876 5.00787 811.28Q4.60824 809.685 4.28737 808.072Q3.96649 806.459 3.72516 804.832Q3.48383 803.205 3.32262 801.568Q3.16141 799.931 3.0807 798.288Q3 796.646 3 795.001L3 338L2.359 338Q2.24311 338 2.12778 337.989Q2.01245 337.977 1.89878 337.955Q1.78512 337.932 1.67422 337.898Q1.56332 337.865 1.45625 337.82Q1.34918 337.776 1.24698 337.721Q1.14477 337.667 1.04841 337.602Q0.952051 337.538 0.862466 337.464Q0.772882 337.391 0.690935 337.309Q0.608988 337.227 0.535468 337.138Q0.461948 337.048 0.397563 336.952Q0.333178 336.855 0.278548 336.753Q0.223917 336.651 0.179568 336.544Q0.135219 336.437 0.101578 336.326Q0.0679366 336.215 0.0453275 336.101Q0.0227185 335.988 0.0113592 335.872Q0 335.757 0 335.641L0 274.359Q0 274.243 0.0113592 274.128Q0.0227185 274.012 0.0453275 273.899Q0.0679366 273.785 0.101578 273.674Q0.135219 273.563 0.179568 273.456Q0.223917 273.349 0.278548 273.247Q0.333178 273.145 0.397563 273.048Q0.461948 272.952 0.535468 272.862Q0.608988 272.773 0.690935 272.691Q0.772882 272.609 0.862466 272.535Q0.952051 272.462 1.04841 272.398Q1.14477 272.333 1.24697 272.279Q1.34918 272.224 1.45625 272.18Q1.56332 272.135 1.67422 272.102Q1.78512 272.068 1.89878 272.045Q2.01245 272.023 2.12778 272.011Q2.24311 272 2.359 272L3 272L3 254L2.359 254Q2.24311 254 2.12778 253.989Q2.01245 253.977 1.89878 253.955Q1.78512 253.932 1.67422 253.898Q1.56332 253.865 1.45625 253.82Q1.34918 253.776 1.24698 253.721Q1.14477 253.667 1.04841 253.602Q0.952051 253.538 0.862466 253.465Q0.772882 253.391 0.690935 253.309Q0.608988 253.227 0.535468 253.138Q0.461948 253.048 0.397563 252.952Q0.333178 252.855 0.278548 252.753Q0.223917 252.651 0.179568 252.544Q0.135219 252.437 0.101578 252.326Q0.0679366 252.215 0.0453275 252.101Q0.0227185 251.988 0.0113592 251.872Q0 251.757 0 251.641L0 190.359Q0 190.243 0.0113592 190.128Q0.0227185 190.012 0.0453275 189.899Q0.0679366 189.785 0.101578 189.674Q0.135219 189.563 0.179568 189.456Q0.223917 189.349 0.278548 189.247Q0.333178 189.145 0.397563 189.048Q0.461948 188.952 0.535468 188.862Q0.608988 188.773 0.690935 188.691Q0.772882 188.609 0.862466 188.535Q0.952051 188.462 1.04841 188.398Q1.14477 188.333 1.24697 188.279Q1.34918 188.224 1.45625 188.18Q1.56332 188.135 1.67422 188.102Q1.78512 188.068 1.89878 188.045Q2.01245 188.023 2.12778 188.011Q2.24311 188 2.359 188L3 188L3 158L2.359 158Q2.24311 158 2.12778 157.989Q2.01245 157.977 1.89878 157.955Q1.78512 157.932 1.67422 157.898Q1.56332 157.865 1.45625 157.82Q1.34918 157.776 1.24698 157.721Q1.14477 157.667 1.04841 157.602Q0.952051 157.538 0.862466 157.465Q0.772882 157.391 0.690935 157.309Q0.608988 157.227 0.535468 157.138Q0.461948 157.048 0.397563 156.952Q0.333178 156.855 0.278548 156.753Q0.223917 156.651 0.179568 156.544Q0.135219 156.437 0.101578 156.326Q0.0679366 156.215 0.0453275 156.101Q0.0227185 155.988 0.0113592 155.872Q0 155.757 0 155.641L0 125.359Q0 125.243 0.0113592 125.128Q0.0227185 125.012 0.0453275 124.899Q0.0679366 124.785 0.101578 124.674Q0.135219 124.563 0.179568 124.456Q0.223917 124.349 0.278548 124.247Q0.333178 124.145 0.397563 124.048Q0.461948 123.952 0.535468 123.862Q0.608988 123.773 0.690935 123.691Q0.772882 123.609 0.862466 123.535Q0.952051 123.462 1.04841 123.398Q1.14477 123.333 1.24697 123.279Q1.34918 123.224 1.45625 123.18Q1.56332 123.135 1.67422 123.102Q1.78512 123.068 1.89878 123.045Q2.01245 123.023 2.12778 123.011Q2.24311 123 2.359 123L3 123L3 66.999Q3 65.3543 3.0807 63.7115Q3.16141 62.0688 3.32262 60.4319Q3.48383 58.7951 3.72516 57.1682Q3.96649 55.5413 4.28737 53.9281Q4.60824 52.315 5.00787 50.7196Q5.40751 49.1241 5.88495 47.5502Q6.36239 45.9763 6.91649 44.4277Q7.47058 42.8791 8.09999 41.3596Q8.72941 39.8401 9.43262 38.3532Q10.1358 36.8664 10.9112 35.4159Q11.6865 33.9654 12.532 32.5546Q13.3776 31.1439 14.2914 29.7763Q15.2051 28.4088 16.1849 27.0877Q17.1647 25.7667 18.2081 24.4953Q19.2515 23.2239 20.356 22.0052Q21.4605 20.7866 22.6236 19.6236Q23.7866 18.4606 25.0052 17.356Q26.2239 16.2515 27.4953 15.2081Q28.7667 14.1647 30.0877 13.1849Q31.4088 12.2051 32.7763 11.2914Q34.1439 10.3776 35.5546 9.53204Q36.9654 8.68648 38.4159 7.91116Q39.8664 7.13583 41.3532 6.43262Q42.8401 5.72941 44.3596 5.09999Q45.8791 4.47058 47.4277 3.91649Q48.9763 3.3624 50.5502 2.88495Q52.1241 2.40751 53.7196 2.00788Q55.315 1.60824 56.9281 1.28737Q58.5413 0.966495 60.1682 0.725163Q61.7951 0.48383 63.432 0.322618Q65.0688 0.161406 66.7115 0.0807032Q68.3543 0 69.999 0ZM104 25L68.999 25Q67.9925 25 66.9873 25.0494Q65.982 25.0988 64.9804 25.1974Q63.9788 25.2961 62.9832 25.4438Q61.9876 25.5914 61.0005 25.7878Q60.0134 25.9841 59.037 26.2287Q58.0607 26.4732 57.0976 26.7654Q56.1345 27.0576 55.1868 27.3966Q54.2392 27.7357 53.3094 28.1209Q52.3795 28.506 51.4697 28.9363Q50.5598 29.3667 49.6722 29.8411Q48.7846 30.3156 47.9213 30.833Q47.058 31.3504 46.2212 31.9096Q45.3843 32.4687 44.5759 33.0683Q43.7675 33.6678 42.9895 34.3063Q42.2115 34.9448 41.4658 35.6207Q40.72 36.2966 40.0083 37.0083Q39.2966 37.72 38.6207 38.4658Q37.9448 39.2115 37.3063 39.9895Q36.6678 40.7675 36.0683 41.5759Q35.4687 42.3843 34.9096 43.2212Q34.3504 44.058 33.833 44.9213Q33.3156 45.7846 32.8411 46.6722Q32.3667 47.5598 31.9363 48.4697Q31.506 49.3795 31.1209 50.3094Q30.7357 51.2392 30.3966 52.1868Q30.0576 53.1345 29.7654 54.0976Q29.4732 55.0607 29.2287 56.0371Q28.9841 57.0134 28.7878 58.0005Q28.5914 58.9876 28.4437 59.9832Q28.2961 60.9788 28.1974 61.9804Q28.0988 62.982 28.0494 63.9873Q28 64.9925 28 65.999L28 796.001Q28 797.007 28.0494 798.013Q28.0988 799.018 28.1974 800.02Q28.2961 801.021 28.4437 802.017Q28.5914 803.012 28.7878 803.999Q28.9841 804.987 29.2287 805.963Q29.4732 806.939 29.7654 807.902Q30.0576 808.865 30.3966 809.813Q30.7357 810.761 31.1209 811.691Q31.506 812.62 31.9363 813.53Q32.3667 814.44 32.8411 815.328Q33.3156 816.215 33.833 817.079Q34.3504 817.942 34.9096 818.779Q35.4687 819.616 36.0683 820.424Q36.6678 821.232 37.3063 822.01Q37.9448 822.789 38.6207 823.534Q39.2966 824.28 40.0083 824.992Q40.72 825.703 41.4657 826.379Q42.2115 827.055 42.9895 827.694Q43.7675 828.332 44.5759 828.932Q45.3843 829.531 46.2212 830.09Q47.058 830.649 47.9213 831.167Q48.7846 831.684 49.6722 832.159Q50.5598 832.633 51.4697 833.064Q52.3795 833.494 53.3094 833.879Q54.2392 834.264 55.1868 834.603Q56.1345 834.942 57.0976 835.234Q58.0607 835.527 59.037 835.771Q60.0134 836.016 61.0005 836.212Q61.9876 836.408 62.9832 836.556Q63.9788 836.704 64.9804 836.803Q65.982 836.901 66.9873 836.951Q67.9925 837 68.999 837L362.001 837Q363.007 837 364.013 836.951Q365.018 836.901 366.02 836.803Q367.021 836.704 368.017 836.556Q369.012 836.408 369.999 836.212Q370.987 836.016 371.963 835.771Q372.939 835.527 373.902 835.234Q374.865 834.942 375.813 834.603Q376.761 834.264 377.691 833.879Q378.62 833.494 379.53 833.064Q380.44 832.633 381.328 832.159Q382.215 831.684 383.079 831.167Q383.942 830.649 384.779 830.09Q385.616 829.531 386.424 828.932Q387.232 828.332 388.01 827.694Q388.788 827.055 389.534 826.379Q390.28 825.703 390.992 824.992Q391.703 824.28 392.379 823.534Q393.055 822.789 393.694 822.01Q394.332 821.232 394.932 820.424Q395.531 819.616 396.09 818.779Q396.65 817.942 397.167 817.079Q397.684 816.215 398.159 815.328Q398.633 814.44 399.064 813.53Q399.494 812.62 399.879 811.691Q400.264 810.761 400.603 809.813Q400.942 808.865 401.235 807.902Q401.527 806.939 401.771 805.963Q402.016 804.987 402.212 803.999Q402.409 803.012 402.556 802.017Q402.704 801.021 402.803 800.02Q402.901 799.018 402.951 798.013Q403 797.007 403 796.001L403 65.999Q403 64.9925 402.951 63.9873Q402.901 62.982 402.803 61.9804Q402.704 60.9788 402.556 59.9832Q402.408 58.9876 402.212 58.0005Q402.016 57.0134 401.771 56.037Q401.527 55.0607 401.235 54.0976Q400.942 53.1345 400.603 52.1868Q400.264 51.2392 399.879 50.3094Q399.494 49.3795 399.064 48.4697Q398.633 47.5598 398.159 46.6722Q397.684 45.7846 397.167 44.9213Q396.65 44.058 396.09 43.2212Q395.531 42.3843 394.932 41.5759Q394.332 40.7675 393.694 39.9895Q393.055 39.2115 392.379 38.4658Q391.703 37.72 390.992 37.0083Q390.28 36.2966 389.534 35.6207Q388.788 34.9448 388.01 34.3063Q387.232 33.6678 386.424 33.0683Q385.616 32.4687 384.779 31.9096Q383.942 31.3504 383.079 30.833Q382.215 30.3156 381.328 29.8411Q380.44 29.3667 379.53 28.9363Q378.62 28.506 377.691 28.1209Q376.761 27.7357 375.813 27.3966Q374.865 27.0576 373.902 26.7654Q372.939 26.4732 371.963 26.2287Q370.987 25.9841 369.999 25.7878Q369.012 25.5914 368.017 25.4438Q367.021 25.2961 366.02 25.1974Q365.018 25.0988 364.013 25.0494Q363.007 25 362.001 25L328 25C324.134 25 321 28.134 321 32L321 40.501Q321 40.906 320.98 41.3106Q320.96 41.7151 320.921 42.1182Q320.881 42.5213 320.821 42.9219Q320.762 43.3225 320.683 43.7198Q320.604 44.117 320.506 44.5099Q320.407 44.9028 320.289 45.2904Q320.172 45.678 320.035 46.0593Q319.899 46.4407 319.744 46.8149Q319.589 47.1891 319.416 47.5552Q319.243 47.9214 319.052 48.2786Q318.861 48.6358 318.653 48.9832Q318.444 49.3306 318.219 49.6674Q317.994 50.0041 317.753 50.3294Q317.512 50.6548 317.255 50.9679Q316.998 51.2809 316.726 51.5811Q316.454 51.8812 316.168 52.1676Q315.881 52.4539 315.581 52.7259Q315.281 52.998 314.968 53.2549Q314.655 53.5118 314.329 53.7531Q314.004 53.9944 313.667 54.2194Q313.331 54.4444 312.983 54.6527Q312.636 54.8609 312.279 55.0518Q311.921 55.2427 311.555 55.4159Q311.189 55.5891 310.815 55.7441Q310.441 55.8991 310.059 56.0355Q309.678 56.172 309.29 56.2896Q308.903 56.4071 308.51 56.5055Q308.117 56.604 307.72 56.683Q307.323 56.762 306.922 56.8214Q306.521 56.8809 306.118 56.9206Q305.715 56.9603 305.311 56.9801Q304.906 57 304.501 57L127.499 57Q127.094 57 126.689 56.9801Q126.285 56.9603 125.882 56.9206Q125.479 56.8809 125.078 56.8214Q124.677 56.762 124.28 56.683Q123.883 56.604 123.49 56.5055Q123.097 56.4071 122.71 56.2896Q122.322 56.172 121.941 56.0355Q121.559 55.8991 121.185 55.7441Q120.811 55.5891 120.445 55.4159Q120.079 55.2427 119.721 55.0518Q119.364 54.8609 119.017 54.6527Q118.669 54.4444 118.333 54.2194Q117.996 53.9944 117.671 53.7531Q117.345 53.5118 117.032 53.2549Q116.719 52.998 116.419 52.726Q116.119 52.4539 115.832 52.1676Q115.546 51.8812 115.274 51.581Q115.002 51.2809 114.745 50.9679Q114.488 50.6548 114.247 50.3294Q114.006 50.0041 113.781 49.6673Q113.556 49.3306 113.347 48.9832Q113.139 48.6358 112.948 48.2786Q112.757 47.9214 112.584 47.5552Q112.411 47.1891 112.256 46.8149Q112.101 46.4407 111.964 46.0593Q111.828 45.678 111.71 45.2904Q111.593 44.9028 111.494 44.5099Q111.396 44.117 111.317 43.7198Q111.238 43.3225 111.179 42.9219Q111.119 42.5213 111.079 42.1182Q111.04 41.7151 111.02 41.3106Q111 40.906 111 40.501L111 32C111 28.134 107.866 25 104 25ZM268 36C268 39.866 264.866 43 261 43C257.134 43 254 39.866 254 36C254 32.134 257.134 29 261 29C264.866 29 268 32.134 268 36ZM192.999 33L239.001 33Q239.148 33 239.295 33.0144Q239.442 33.0289 239.586 33.0576Q239.731 33.0864 239.872 33.1291Q240.013 33.1719 240.149 33.2283Q240.285 33.2847 240.415 33.3541Q240.545 33.4236 240.667 33.5054Q240.79 33.5873 240.904 33.6807Q241.017 33.7742 241.122 33.8784Q241.226 33.9826 241.319 34.0965Q241.413 34.2103 241.495 34.3328Q241.576 34.4553 241.646 34.5853Q241.715 34.7152 241.772 34.8513Q241.828 34.9875 241.871 35.1284Q241.914 35.2694 241.942 35.4139Q241.971 35.5584 241.986 35.705Q242 35.8517 242 35.999L242 36.001Q242 36.1483 241.986 36.295Q241.971 36.4416 241.942 36.5861Q241.914 36.7306 241.871 36.8716Q241.828 37.0125 241.772 37.1487Q241.715 37.2848 241.646 37.4147Q241.576 37.5447 241.495 37.6672Q241.413 37.7897 241.319 37.9035Q241.226 38.0174 241.122 38.1216Q241.017 38.2258 240.904 38.3193Q240.79 38.4127 240.667 38.4946Q240.545 38.5764 240.415 38.6459Q240.285 38.7153 240.149 38.7717Q240.013 38.8281 239.872 38.8709Q239.731 38.9136 239.586 38.9424Q239.442 38.9711 239.295 38.9856Q239.148 39 239.001 39L192.999 39Q192.852 39 192.705 38.9856Q192.558 38.9711 192.414 38.9424Q192.269 38.9136 192.128 38.8709Q191.987 38.8281 191.851 38.7717Q191.715 38.7153 191.585 38.6459Q191.455 38.5764 191.333 38.4946Q191.21 38.4127 191.096 38.3193Q190.983 38.2258 190.878 38.1216Q190.774 38.0174 190.681 37.9035Q190.587 37.7897 190.505 37.6672Q190.424 37.5447 190.354 37.4147Q190.285 37.2848 190.228 37.1487Q190.172 37.0125 190.129 36.8716Q190.086 36.7306 190.058 36.5861Q190.029 36.4416 190.014 36.295Q190 36.1483 190 36.001L190 35.999Q190 35.8517 190.014 35.705Q190.029 35.5584 190.058 35.4139Q190.086 35.2694 190.129 35.1284Q190.172 34.9875 190.228 34.8513Q190.285 34.7152 190.354 34.5853Q190.424 34.4553 190.505 34.3328Q190.587 34.2103 190.681 34.0965Q190.774 33.9826 190.878 33.8784Q190.983 33.7742 191.096 33.6807Q191.21 33.5873 191.333 33.5054Q191.455 33.4236 191.585 33.3541Q191.715 33.2847 191.851 33.2283Q191.987 33.1719 192.128 33.1291Q192.269 33.0864 192.414 33.0576Q192.558 33.0289 192.705 33.0144Q192.852 33 192.999 33ZM151.999 822L280.001 822Q280.148 822 280.295 822.014Q280.442 822.029 280.586 822.058Q280.731 822.086 280.872 822.129Q281.013 822.172 281.149 822.228Q281.285 822.285 281.415 822.354Q281.545 822.424 281.667 822.505Q281.79 822.587 281.904 822.681Q282.017 822.774 282.122 822.878Q282.226 822.982 282.319 823.096Q282.413 823.21 282.495 823.333Q282.576 823.455 282.646 823.585Q282.715 823.715 282.772 823.851Q282.828 823.987 282.871 824.128Q282.914 824.269 282.942 824.414Q282.971 824.558 282.986 824.705Q283 824.852 283 824.999L283 825.001Q283 825.148 282.986 825.295Q282.971 825.442 282.942 825.586Q282.914 825.731 282.871 825.872Q282.828 826.012 282.772 826.149Q282.715 826.285 282.646 826.415Q282.576 826.545 282.495 826.667Q282.413 826.79 282.319 826.904Q282.226 827.017 282.122 827.122Q282.017 827.226 281.904 827.319Q281.79 827.413 281.667 827.494Q281.545 827.576 281.415 827.646Q281.285 827.715 281.149 827.772Q281.013 827.828 280.872 827.871Q280.731 827.914 280.586 827.942Q280.442 827.971 280.295 827.986Q280.148 828 280.001 828L151.999 828Q151.852 828 151.705 827.986Q151.558 827.971 151.414 827.942Q151.269 827.914 151.128 827.871Q150.987 827.828 150.851 827.772Q150.715 827.715 150.585 827.646Q150.455 827.576 150.333 827.494Q150.21 827.413 150.096 827.319Q149.983 827.226 149.878 827.122Q149.774 827.017 149.681 826.903Q149.587 826.79 149.505 826.667Q149.424 826.545 149.354 826.415Q149.285 826.285 149.228 826.149Q149.172 826.012 149.129 825.872Q149.086 825.731 149.058 825.586Q149.029 825.442 149.014 825.295Q149 825.148 149 825.001L149 824.999Q149 824.852 149.014 824.705Q149.029 824.558 149.058 824.414Q149.086 824.269 149.129 824.128Q149.172 823.987 149.228 823.851Q149.285 823.715 149.354 823.585Q149.424 823.455 149.505 823.333Q149.587 823.21 149.681 823.096Q149.774 822.982 149.878 822.878Q149.983 822.774 150.096 822.681Q150.21 822.587 150.333 822.505Q150.455 822.424 150.585 822.354Q150.715 822.285 150.851 822.228Q150.987 822.172 151.128 822.129Q151.269 822.086 151.414 822.058Q151.558 822.029 151.705 822.014Q151.852 822 151.999 822Z" id="Combined-Shape" fill="#333333" fill-rule="evenodd" stroke="none" />
  </g>
</svg>