<svg xmlns="http://www.w3.org/2000/svg" xmlns:xlink="http://www.w3.org/1999/xlink" width="104.108" height="168.782" viewBox="0 0 104.108 168.782">
  <defs>
    <linearGradient id="linear-gradient" x1="0.965" y1="0.787" x2="0.035" y2="0.213" gradientUnits="objectBoundingBox">
      <stop offset="0" stop-color="#44b2a5"/>
      <stop offset="0.199" stop-color="#5bbcab"/>
      <stop offset="0.614" stop-color="#96d8bd"/>
      <stop offset="1" stop-color="#d2f4d0"/>
    </linearGradient>
  </defs>
  <g id="Group_24" data-name="Group 24" transform="translate(5511.872 -4048.527)">
    <g id="Group_6" data-name="Group 6" transform="translate(-5511.872 4048.527)">
      <g id="Group_5" data-name="Group 5" transform="translate(0)">
        <path id="Path_1" data-name="Path 1" d="M184.957,644.184a51.942,51.942,0,0,1-17.989,22.724c-1.262.9-2.557,1.725-3.87,2.5a52.1,52.1,0,0,1-67.658-12.975c-.435-.559-.867-1.122-1.283-1.7-.281-.394-.539-.8-.808-1.2,6.121-10.362,12.067-17.729,22.095-25.51l.309-.237a32.418,32.418,0,0,1,41.58,3.794c4.127,3.229,9.3,7.719,19.954,10.822m0,0a75.269,75.269,0,0,0,7.67,1.784M128.562,711l-.01,0c-.145-1.289-.324-2.577-.558-3.854q-.356-1.944-.859-3.855t-1.157-3.8q-.657-1.9-1.462-3.739-.81-1.863-1.768-3.657-.968-1.817-2.077-3.554-.732-1.143-1.519-2.247a52,52,0,0,0-30.887-20.569L87.8,665.6c-.913,2.611-1.9,5.67-2.048,6.374l.019-.06a32.575,32.575,0,0,0,19.221,38.8c3.573,1.436,7.389,2.024,10.891,3.752a29.371,29.371,0,0,1,10.663,9.487l1.423,2.19C128.816,721.11,128.543,716.074,128.562,711Zm-11.9,26.608a51.924,51.924,0,0,0-13.958,5.691m0,0c-1.312.773-2.606,1.6-3.868,2.5a51.944,51.944,0,0,0-17.989,22.724,75.524,75.524,0,0,1,7.67,1.784c10.654,3.1,15.827,7.594,19.954,10.823a32.419,32.419,0,0,0,41.58,3.794l.309-.238c10.027-7.781,15.974-15.148,22.095-25.51-.269-.4-.528-.8-.808-1.2-.416-.582-.848-1.145-1.283-1.7a52.088,52.088,0,0,0-53.7-18.665m20.59-35.906c.145,1.291.324,2.579.558,3.857q.356,1.944.859,3.856t1.157,3.8q.657,1.9,1.462,3.739.81,1.863,1.768,3.656.968,1.817,2.077,3.554.732,1.143,1.519,2.248a52,52,0,0,0,30.886,20.569l.472.113c.913-2.61,1.9-5.669,2.048-6.374l-.019.061a32.575,32.575,0,0,0-19.221-38.8c-3.178-1.279-6.583-1.852-9.745-3.213a28.884,28.884,0,0,1-11.811-10.025l-1.422-2.19c-.846,5-.649,10.1-.6,15.141Z" transform="translate(-80.849 -621.962)" fill="url(#linear-gradient)"/>
      </g>
    </g>
  </g>
</svg>
